# xmcd
#
# Track frame offsets:
#	300
#	14968
#	29648
#	48597
#	59852
#	80858
#	98494
#	120007
#	136869
#	152280
#	169380
#	187505
#	219718
#	233673
#	252548
#	276095
#	292060
#	307923
#
# Disc length: 4247
#
# Revision: 2
# Processed by: cddbd v1.5.1PL0 Copyright (c) Steve Scherf et al.
# Submitted via: Kscd 1.3.3
# Normalized: r1:TDELIM( - )
#
DISCID=04109312
DTITLE=Pontohonk - Collection - Ponto
DYEAR=1900
DGENRE=
TTITLE0=Gloria Gaynor - I Will Survive
TTITLE1=Sonny and Cher - I Got You Babe
TTITLE2=Nena - Irgendwie, Irgendwo, Irgendwann
TTITLE3=Aretha Franklin - Son Of A Preacherman
TTITLE4=Herbert Grönemeyer - Was Soll Das
TTITLE5=Roxette - Fading Like A Flower
TTITLE6=Bill Medley and Jennifer Warnes - I Had The Time Of My Life
TTITLE7=Police - Every Breath You Take
TTITLE8=Frankie Valli - Can't Take My Eyes Off Of You
TTITLE9=Stevie B. - Because I Love You
TTITLE10=Rod Stewart - Have I Told You Lately
TTITLE11=Bob Marley - No Woman No Cry
TTITLE12=BJ Thomas - Raindrops Keep Falling On My Head
TTITLE13=Leo Sayer - When I Need You
TTITLE14=Eric Claption - Wonderful Tonight
TTITLE15=Mary Beth Maziarz - Daydream Believer
TTITLE16=Nat King Cole - Unforgettable
TTITLE17=Louis Armstrong - Wonderful World
EXTD=
EXTT0=
EXTT1=
EXTT2=
EXTT3=
EXTT4=
EXTT5=
EXTT6=
EXTT7=
EXTT8=
EXTT9=
EXTT10=
EXTT11=
EXTT12=
EXTT13=
EXTT14=
EXTT15=
EXTT16=
EXTT17=
PLAYORDER=
